<svg xmlns="http://www.w3.org/2000/svg" xmlns:xlink="http://www.w3.org/1999/xlink" version="1.1" width="1084" height="412" name="ABO_nj.svg" y="0" viewBox="0 0 1084 412">
<polyline points="1084,412 0,412 0,0 1084,0 1084,412" fill="white" />
<text x="130" y="45" fill="#000000" font-size="15" font-family="default" > gi|237681192|ref|NP_001153735.1|_histo-blood_group_ABO_system_transferase_2_Rattus_norvegicus</text>
<polyline points="112,62 112,41 128,41" fill="none" stroke="#000000" stroke-width="1" stroke-linecap="square"/>
<text x="130" y="87" fill="#000000" font-size="15" font-family="default" > gi|404351655|ref|NP_001258227.1|_Abo2_gene_product_Rattus_norvegicus</text>
<polyline points="112,63 112,83 128,83" fill="none" stroke="#000000" stroke-width="1" stroke-linecap="square"/>
<polyline points="96,93 96,62 112,62" fill="none" stroke="#000000" stroke-width="1" stroke-linecap="square"/>
<text x="130" y="129" fill="#000000" font-size="15" font-family="default" > gi|148747204|ref|NP_075582.3|_histo-blood_group_ABO_system_transferase_1_Rattus_norvegicus</text>
<polyline points="96,94 96,125 128,125" fill="none" stroke="#000000" stroke-width="1" stroke-linecap="square"/>
<polyline points="80,130 80,93 96,93" fill="none" stroke="#000000" stroke-width="1" stroke-linecap="square"/>
<text x="130" y="171" fill="#000000" font-size="15" font-family="default" > gi|224967118|ref|NP_109643.3|_histo-blood_group_ABO_system_transferase_isoform_a_Mus_musculus</text>
<polyline points="80,131 80,167 128,167" fill="none" stroke="#000000" stroke-width="1" stroke-linecap="square"/>
<polyline points="64,185 64,130 80,130" fill="none" stroke="#000000" stroke-width="1" stroke-linecap="square"/>
<text x="130" y="213" fill="#000000" font-size="15" font-family="default" > gi|297269967|ref|XP_001118424.2|_PREDICTED:_histo-blood_group_ABO_system_transferase_Macaca_mulatta</text>
<polyline points="96,240 96,209 128,209" fill="none" stroke="#000000" stroke-width="1" stroke-linecap="square"/>
<text x="130" y="255" fill="#000000" font-size="15" font-family="default" > gi|58331216|ref|NP_065202.2|_histo-blood_group_ABO_system_transferase_Homo_sapiens</text>
<polyline points="112,272 112,251 128,251" fill="none" stroke="#000000" stroke-width="1" stroke-linecap="square"/>
<text x="130" y="297" fill="#000000" font-size="15" font-family="default" > gi|302632534|ref|NP_001181854.1|_histo-blood_group_ABO_system_transferase_Pan_troglodytes</text>
<polyline points="112,273 112,293 128,293" fill="none" stroke="#000000" stroke-width="1" stroke-linecap="square"/>
<polyline points="96,241 96,272 112,272" fill="none" stroke="#000000" stroke-width="1" stroke-linecap="square"/>
<polyline points="64,186 64,240 96,240" fill="none" stroke="#000000" stroke-width="1" stroke-linecap="square"/>
<polyline points="48,260 48,185 64,185" fill="none" stroke="#000000" stroke-width="1" stroke-linecap="square"/>
<text x="130" y="339" fill="#000000" font-size="15" font-family="default" > gi|545512722|ref|XP_005625199.1|_PREDICTED:_histo-blood_group_ABO_system_transferase_isoform_X2_Canis_lupus_familiaris</text>
<polyline points="48,261 48,335 128,335" fill="none" stroke="#000000" stroke-width="1" stroke-linecap="square"/>
<text x="130" y="381" fill="#000000" font-size="15" font-family="default" > gi|118151396|ref|NP_001071394.1|_histo-blood_group_ABO_system_transferase_Bos_taurus</text>
<polyline points="48,282 48,377 128,377" fill="none" stroke="#000000" stroke-width="1" stroke-linecap="square"/>
<line x1="48" y1="186" x2="48" y2="283" stroke="#000000" stroke-width="1" stroke-linecap="square"/>
<text x="88" y="289" fill="#303030" font-size="11" font-family="MS Sans Serif" >100</text>
<text x="72" y="257" fill="#303030" font-size="11" font-family="MS Sans Serif" >100</text>
<text x="46" y="179" fill="#303030" font-size="11" font-family="MS Sans Serif" >75</text>
<text x="88" y="56" fill="#303030" font-size="11" font-family="MS Sans Serif" >100</text>
<text x="78" y="87" fill="#303030" font-size="11" font-family="MS Sans Serif" >97</text>
<text x="56" y="124" fill="#303030" font-size="11" font-family="MS Sans Serif" >100</text>
</svg>
