<svg xmlns="http://www.w3.org/2000/svg" xmlns:xlink="http://www.w3.org/1999/xlink" version="1.1" width="1332" height="700" name="RHD_min.svg" y="0" viewBox="0 0 1332 700">
<polyline points="1332,700 0,700 0,0 1332,0 1332,700" fill="white" />
<text x="347" y="58" fill="#000000" font-size="15" font-family="default" > gi|301129227|ref|NP_065231.3|_blood_group_Rh(CE)_polypeptide_isoform_1_Homo_sapiens</text>
<polyline points="284,88 284,54 345,54" fill="none" stroke="#000000" stroke-width="1" stroke-linecap="square"/>
<text x="347" y="126" fill="#000000" font-size="15" font-family="default" > gi|20336225|ref|NP_057208.2|_blood_group_Rh(D)_polypeptide_isoform_1_Homo_sapiens</text>
<polyline points="284,89 284,122 345,122" fill="none" stroke="#000000" stroke-width="1" stroke-linecap="square"/>
<polyline points="223,139 223,88 284,88" fill="none" stroke="#000000" stroke-width="1" stroke-linecap="square"/>
<text x="347" y="194" fill="#000000" font-size="15" font-family="default" > gi|193211410|ref|NP_001123215.1|_RH-like_protein_IA_Pan_troglodytes</text>
<polyline points="223,140 223,190 345,190" fill="none" stroke="#000000" stroke-width="1" stroke-linecap="square"/>
<polyline points="162,198 162,139 223,139" fill="none" stroke="#000000" stroke-width="1" stroke-linecap="square"/>
<text x="347" y="262" fill="#000000" font-size="15" font-family="default" > gi|94400872|ref|NP_001028136.3|_RH-like_protein_Macaca_mulatta</text>
<polyline points="162,199 162,258 345,258" fill="none" stroke="#000000" stroke-width="1" stroke-linecap="square"/>
<polyline points="101,296 101,198 162,198" fill="none" stroke="#000000" stroke-width="1" stroke-linecap="square"/>
<text x="347" y="330" fill="#000000" font-size="15" font-family="default" > gi|114158620|ref|NP_001041501.1|_blood_group_Rh(CE)_polypeptide_Canis_lupus_familiaris</text>
<polyline points="101,360 101,326 345,326" fill="none" stroke="#000000" stroke-width="1" stroke-linecap="square"/>
<text x="347" y="398" fill="#000000" font-size="15" font-family="default" > gi|28395043|ref|NP_777137.1|_rhesus-like_protein_Bos_taurus</text>
<polyline points="101,361 101,394 345,394" fill="none" stroke="#000000" stroke-width="1" stroke-linecap="square"/>
<text x="347" y="466" fill="#000000" font-size="15" font-family="default" > gi|227116310|ref|NP_035400.3|_blood_group_Rh(D)_polypeptide_Mus_musculus</text>
<polyline points="284,496 284,462 345,462" fill="none" stroke="#000000" stroke-width="1" stroke-linecap="square"/>
<text x="347" y="534" fill="#000000" font-size="15" font-family="default" > gi|11968076|ref|NP_071950.1|_blood_group_Rh(D)_polypeptide_Rattus_norvegicus</text>
<polyline points="284,497 284,530 345,530" fill="none" stroke="#000000" stroke-width="1" stroke-linecap="square"/>
<polyline points="101,348 101,496 284,496" fill="none" stroke="#000000" stroke-width="1" stroke-linecap="square"/>
<line x1="101" y1="199" x2="101" y2="349" stroke="#000000" stroke-width="1" stroke-linecap="square"/>
<polyline points="40,489 40,347 101,347" fill="none" stroke="#000000" stroke-width="1" stroke-linecap="square"/>
<text x="347" y="602" fill="#000000" font-size="15" font-family="default" > gi|45383231|ref|NP_989798.1|_blood_group_Rh(CE)_polypeptide_Gallus_gallus</text>
<polyline points="284,632 284,598 345,598" fill="none" stroke="#000000" stroke-width="1" stroke-linecap="square"/>
<text x="347" y="670" fill="#000000" font-size="15" font-family="default" > gi|301614317|ref|XP_002936645.1|_PREDICTED:_LOW_QUALITY_PROTEIN:_Rh_blood_group_D_antigen_Xenopus_(Silurana)_tropicalis</text>
<polyline points="284,633 284,666 345,666" fill="none" stroke="#000000" stroke-width="1" stroke-linecap="square"/>
<polyline points="40,490 40,632 284,632" fill="none" stroke="#000000" stroke-width="1" stroke-linecap="square"/>
<text x="260" y="649" fill="#303030" font-size="11" font-family="MS Sans Serif" >100</text>
<text x="260" y="513" fill="#303030" font-size="11" font-family="MS Sans Serif" >100</text>
<text x="266" y="82" fill="#303030" font-size="11" font-family="MS Sans Serif" >88</text>
<text x="199" y="133" fill="#303030" font-size="11" font-family="MS Sans Serif" >100</text>
<text x="138" y="192" fill="#303030" font-size="11" font-family="MS Sans Serif" >100</text>
</svg>
